<svg width="30" height="30" viewBox="0 0 30 30" fill="none" xmlns="http://www.w3.org/2000/svg">
<path d="M11 12.3334H1.66671C1.31309 12.3334 0.973946 12.1929 0.723897 11.9429C0.473849 11.6928 0.333374 11.3537 0.333374 11V1.66671C0.333374 1.31309 0.473849 0.973946 0.723897 0.723897C0.973946 0.473849 1.31309 0.333374 1.66671 0.333374H11C11.3537 0.333374 11.6928 0.473849 11.9429 0.723897C12.1929 0.973946 12.3334 1.31309 12.3334 1.66671V11C12.3334 11.3537 12.1929 11.6928 11.9429 11.9429C11.6928 12.1929 11.3537 12.3334 11 12.3334Z" fill="#1C75BC"/>
<path d="M11 29.6667H1.66671C1.31309 29.6667 0.973946 29.5263 0.723897 29.2762C0.473849 29.0262 0.333374 28.687 0.333374 28.3334V19.0001C0.333374 18.6465 0.473849 18.3073 0.723897 18.0573C0.973946 17.8072 1.31309 17.6667 1.66671 17.6667H11C11.3537 17.6667 11.6928 17.8072 11.9429 18.0573C12.1929 18.3073 12.3334 18.6465 12.3334 19.0001V28.3334C12.3334 28.687 12.1929 29.0262 11.9429 29.2762C11.6928 29.5263 11.3537 29.6667 11 29.6667Z" fill="#1C75BC"/>
<path d="M16.3334 1.66675H29.6667V4.33341H16.3334V1.66675Z" fill="#8DC63F"/>
<path d="M29.6667 19H16.3334V21.6667H29.6667V19Z" fill="#8DC63F"/>
<path d="M29.6667 25.6667H16.3334V28.3334H29.6667V25.6667Z" fill="#D6B1FF"/>
<path d="M29.6667 8.33337H16.3334V11H29.6667V8.33337Z" fill="#D6B1FF"/>
</svg>
