<svg width="32" height="32" viewBox="0 0 32 32" fill="none" xmlns="http://www.w3.org/2000/svg">
<path d="M12 13.3334H2.66668C2.31305 13.3334 1.97392 13.1929 1.72387 12.9429C1.47382 12.6928 1.33334 12.3537 1.33334 12V2.66671C1.33334 2.31309 1.47382 1.97395 1.72387 1.7239C1.97392 1.47385 2.31305 1.33337 2.66668 1.33337H12C12.3536 1.33337 12.6928 1.47385 12.9428 1.7239C13.1929 1.97395 13.3333 2.31309 13.3333 2.66671V12C13.3333 12.3537 13.1929 12.6928 12.9428 12.9429C12.6928 13.1929 12.3536 13.3334 12 13.3334Z" fill="#1C75BC"/>
<path d="M12 30.6667H2.66668C2.31305 30.6667 1.97392 30.5263 1.72387 30.2762C1.47382 30.0262 1.33334 29.687 1.33334 29.3334V20.0001C1.33334 19.6465 1.47382 19.3073 1.72387 19.0573C1.97392 18.8072 2.31305 18.6667 2.66668 18.6667H12C12.3536 18.6667 12.6928 18.8072 12.9428 19.0573C13.1929 19.3073 13.3333 19.6465 13.3333 20.0001V29.3334C13.3333 29.687 13.1929 30.0262 12.9428 30.2762C12.6928 30.5263 12.3536 30.6667 12 30.6667Z" fill="#1C75BC"/>
<path d="M17.3333 2.66675H30.6667V5.33341H17.3333V2.66675Z" fill="#8DC63F"/>
<path d="M30.6667 20H17.3333V22.6667H30.6667V20Z" fill="#8DC63F"/>
<path d="M30.6667 26.6667H17.3333V29.3334H30.6667V26.6667Z" fill="#D6B1FF"/>
<path d="M30.6667 9.33337H17.3333V12H30.6667V9.33337Z" fill="#D6B1FF"/>
</svg>
