<svg width="175" height="29" viewBox="0 0 175 29" fill="none" xmlns="http://www.w3.org/2000/svg">
<path d="M13.1805 7.62732C11.7485 7.62732 10.3294 7.62732 8.8974 7.62732C8.8974 9.07218 8.91026 10.5192 8.8974 11.964C7.45254 11.9512 6.00553 11.964 4.56067 11.964C4.54781 13.396 4.54781 14.8152 4.56067 16.2472C6.00553 16.2472 7.43968 16.26 8.88454 16.2472C8.91026 17.692 8.8974 19.1519 8.92527 20.5968C10.3444 20.5968 11.7635 20.5968 13.1955 20.5839C13.1698 19.139 13.1827 17.692 13.1955 16.2472C14.6404 16.26 16.0874 16.26 17.5323 16.2472C17.5451 14.828 17.5451 13.396 17.5323 11.964C16.0874 11.9512 14.6404 11.964 13.1955 11.964C13.1805 10.5192 13.1805 9.07218 13.1805 7.62732Z" fill="white"/>
<path d="M1.05998 22.7598C0.701981 23.1178 0.755575 23.7416 1.12644 24.0867C3.40735 26.3955 6.5243 27.8532 9.7613 28.119C13.0369 28.4363 16.4068 27.5617 19.0843 25.6645C21.0865 24.2711 22.7179 22.3353 23.779 20.1337C24.4693 18.5152 24.9066 16.7917 25.091 15.0274C25.2775 12.0026 24.48 8.91353 22.7972 6.37966C23.1681 5.50503 23.2753 4.45675 22.7972 3.59498C22.1734 2.32162 20.542 1.71066 19.2172 2.18871C18.1153 2.57243 17.3072 3.64857 17.2686 4.81475C17.1893 6.10098 18.051 7.36148 19.2837 7.74521C19.9611 7.98316 20.6771 7.89098 21.3395 7.67875C23.5668 11.0873 23.8069 15.6619 22.0298 19.3234C21.824 19.7993 21.5324 20.2237 21.3095 20.6846L21.0072 21.1413C19.9954 22.4511 18.8249 23.6408 17.3886 24.4962C14.7369 26.1404 11.4205 26.672 8.37004 25.9818C6.44713 25.5573 4.64427 24.6419 3.14367 23.3686C3.40949 23.1028 3.67316 22.8391 3.93899 22.5733C5.52962 23.8595 7.43967 24.762 9.46976 25.0407C11.9629 25.3987 14.5889 24.8949 16.7369 23.5808C20.0404 21.6043 22.1755 17.8121 22.0683 13.9663C22.0683 13.2374 21.0737 12.8515 20.557 13.3424C20.1326 13.634 20.1862 14.1785 20.1583 14.6158C20.0125 18.0243 17.7573 21.2334 14.6018 22.5197C12.4795 23.435 9.99926 23.4886 7.8384 22.6654C5.76757 21.898 3.99043 20.3459 2.97003 18.3823C2.00107 16.5644 1.67094 14.4036 2.06753 12.3735C2.50484 10.054 3.91112 7.93171 5.84689 6.60475C7.34534 5.55648 9.15035 4.98625 10.9661 4.97339C11.457 5.01412 11.9736 4.66898 12.0143 4.13734C12.1065 3.60784 11.6563 3.06334 11.099 3.06334C8.77734 3.05048 6.44284 3.82007 4.56066 5.17275C2.59702 6.57903 1.11143 8.66057 0.436162 10.9822C-0.254113 13.396 -0.134066 16.0478 0.860616 18.3694C1.28507 19.4049 1.90889 20.3331 2.58416 21.2206C2.08039 21.7394 1.55089 22.2281 1.05998 22.7598ZM21.1251 5.95521C20.3963 6.7248 18.9643 6.20817 18.8442 5.17275C18.6448 4.2188 19.6803 3.30344 20.6085 3.64857C21.5774 3.89939 21.8947 5.30566 21.1251 5.95521Z" fill="white"/>
<path d="M24.6665 3.31848C25.2845 3.31848 25.7855 2.81748 25.7855 2.19946C25.7855 1.58145 25.2845 1.08044 24.6665 1.08044C24.0485 1.08044 23.5475 1.58145 23.5475 2.19946C23.5475 2.81748 24.0485 3.31848 24.6665 3.31848Z" fill="white"/>
<path d="M27.2668 1.4663C27.6717 1.4663 28 1.13806 28 0.733149C28 0.328242 27.6717 0 27.2668 0C26.8619 0 26.5337 0.328242 26.5337 0.733149C26.5337 1.13806 26.8619 1.4663 27.2668 1.4663Z" fill="white"/>
<path d="M55.6664 4.52264V23.158H52.0714V15.2043H43.618V23.158H40V4.52264H43.6237V12.0572H52.0771V4.52264H55.6664Z" fill="white"/>
<path d="M65.4061 23.4221C64.3035 23.4221 63.3042 23.2326 62.4141 22.8594C61.524 22.4861 60.7602 21.9692 60.1285 21.326C59.4968 20.6771 59.0144 19.9248 58.6698 19.0691C58.331 18.2134 58.1587 17.3118 58.1587 16.3642C58.1587 15.3822 58.3252 14.4634 58.6583 13.5962C58.9914 12.7291 59.4738 11.971 60.0998 11.3106C60.7315 10.6559 61.4953 10.1333 62.3969 9.74854C63.2985 9.36377 64.3092 9.16852 65.4291 9.16852C66.5489 9.16852 67.5482 9.36377 68.4326 9.74854C69.317 10.1333 70.0693 10.6502 70.6895 11.2991C71.3097 11.948 71.7806 12.7003 72.108 13.556C72.4296 14.4117 72.5961 15.3076 72.5961 16.2322C72.5961 16.4619 72.5904 16.6801 72.5846 16.8868C72.5731 17.0993 72.5559 17.2716 72.5214 17.4094H61.8858C61.9375 17.9493 62.0695 18.4317 62.282 18.8509C62.4945 19.2701 62.7644 19.6319 63.0975 19.9248C63.4306 20.2234 63.8039 20.4474 64.2288 20.6082C64.6481 20.7632 65.0845 20.8436 65.5439 20.8436C66.2446 20.8436 66.905 20.6714 67.5252 20.3325C68.1454 19.9937 68.5704 19.54 68.8001 18.983L71.8208 19.8214C71.3155 20.8723 70.5057 21.7338 69.3916 22.4057C68.2718 23.0833 66.9452 23.4221 65.4061 23.4221ZM68.9724 15.1295C68.8862 14.0958 68.5015 13.2689 67.8296 12.6487C67.1577 12.0284 66.3364 11.7183 65.3774 11.7183C64.9065 11.7183 64.4643 11.7987 64.0508 11.9653C63.6373 12.1318 63.2755 12.3615 62.9597 12.6601C62.6438 12.9588 62.3854 13.3148 62.1844 13.734C61.9834 14.1533 61.8628 14.6184 61.8283 15.1238H68.9724V15.1295Z" fill="white"/>
<path d="M74.7211 4H78.2357V18.7533C78.2357 19.2586 78.3563 19.6549 78.6032 19.9363C78.8502 20.2177 79.2005 20.3555 79.6541 20.3555C79.8666 20.3555 80.0963 20.321 80.349 20.2521C80.6017 20.1832 80.8429 20.0971 81.0726 19.988L81.5435 22.6641C81.0726 22.8938 80.5213 23.0661 79.8896 23.1867C79.2579 23.3073 78.6894 23.3705 78.184 23.3705C77.0814 23.3705 76.2257 23.0776 75.6227 22.4918C75.0197 21.9061 74.7153 21.0734 74.7153 19.988V4H74.7211Z" fill="white"/>
<path d="M83.0422 4H86.5568V18.7533C86.5568 19.2586 86.6774 19.6549 86.9244 19.9363C87.1713 20.2177 87.5216 20.3555 87.9753 20.3555C88.1878 20.3555 88.4175 20.321 88.6702 20.2521C88.9229 20.1832 89.1641 20.0971 89.3938 19.988L89.8647 22.6641C89.3938 22.8938 88.8425 23.0661 88.2108 23.1867C87.5791 23.3073 87.0105 23.3705 86.5052 23.3705C85.4025 23.3705 84.5469 23.0776 83.9439 22.4918C83.3409 21.9061 83.0365 21.0734 83.0365 19.988V4H83.0422Z" fill="white"/>
<path d="M97.7381 23.4221C96.6183 23.4221 95.6133 23.2269 94.7174 22.8421C93.8273 22.4574 93.0692 21.9348 92.449 21.2801C91.8288 20.6254 91.3521 19.8674 91.019 19.0117C90.6859 18.156 90.5194 17.2544 90.5194 16.3068C90.5194 15.342 90.6859 14.4347 91.019 13.579C91.3521 12.7233 91.8288 11.9653 92.449 11.3106C93.0692 10.6559 93.8273 10.1333 94.7174 9.74854C95.6075 9.36377 96.6183 9.16852 97.7381 9.16852C98.858 9.16852 99.8572 9.36377 100.742 9.74854C101.626 10.1333 102.378 10.6559 102.999 11.3106C103.619 11.9653 104.095 12.7233 104.428 13.579C104.762 14.4347 104.928 15.3478 104.928 16.3068C104.928 17.2544 104.762 18.156 104.428 19.0117C104.095 19.8674 103.624 20.6254 103.01 21.2801C102.396 21.9348 101.643 22.4574 100.753 22.8421C99.8687 23.2269 98.858 23.4221 97.7381 23.4221ZM94.1431 16.3068C94.1431 16.9213 94.235 17.4726 94.4188 17.9722C94.6025 18.4719 94.8552 18.9026 95.1826 19.2701C95.5042 19.6376 95.8889 19.9248 96.3254 20.1258C96.7618 20.3268 97.2327 20.4302 97.7439 20.4302C98.2492 20.4302 98.7259 20.3325 99.1623 20.1258C99.5988 19.9248 99.9778 19.6376 100.305 19.2701C100.627 18.9026 100.885 18.4661 101.069 17.955C101.253 17.4496 101.345 16.8868 101.345 16.2781C101.345 15.6809 101.253 15.1295 101.069 14.6242C100.885 14.1188 100.632 13.6766 100.305 13.3091C99.9835 12.9415 99.5988 12.6601 99.1623 12.4534C98.7259 12.2524 98.255 12.149 97.7439 12.149C97.2385 12.149 96.7618 12.2524 96.3254 12.4649C95.8889 12.6774 95.5099 12.9645 95.1826 13.332C94.861 13.6996 94.6025 14.136 94.4188 14.6414C94.235 15.164 94.1431 15.7153 94.1431 16.3068Z" fill="white"/>
<path d="M107.455 23.158V4.55136H111.079V13.3953L118.9 4.52264H122.891L115.753 12.7923L123.339 23.158H119.274L113.473 15.1009L111.084 17.5933V23.158H107.455Z" fill="white"/>
<path d="M124.643 4H128.158V18.7533C128.158 19.2586 128.278 19.6549 128.525 19.9363C128.772 20.2177 129.123 20.3555 129.576 20.3555C129.789 20.3555 130.018 20.321 130.271 20.2521C130.524 20.1832 130.765 20.0971 130.995 19.988L131.466 22.6641C130.995 22.8938 130.443 23.0661 129.812 23.1867C129.18 23.3073 128.611 23.3705 128.106 23.3705C127.003 23.3705 126.148 23.0776 125.545 22.4918C124.942 21.9061 124.637 21.0734 124.637 19.988V4H124.643Z" fill="white"/>
<path d="M132.993 7.49163V4H136.508V7.49163H132.993ZM132.993 23.158V9.40397H136.508V23.158H132.993Z" fill="white"/>
<path d="M152.467 23.158H148.952V15.4397C148.952 14.337 148.757 13.533 148.372 13.0277C147.988 12.5223 147.454 12.2639 146.77 12.2639C146.42 12.2639 146.064 12.3328 145.696 12.4764C145.329 12.6142 144.984 12.8152 144.657 13.0679C144.335 13.3206 144.042 13.6249 143.778 13.9752C143.514 14.3256 143.325 14.7103 143.198 15.1295V23.1637H139.684V9.40971H142.859V11.9538C143.365 11.0809 144.1 10.3975 145.065 9.9036C146.029 9.41546 147.109 9.16852 148.321 9.16852C149.176 9.16852 149.877 9.32357 150.423 9.63942C150.962 9.95528 151.387 10.363 151.68 10.8741C151.979 11.3795 152.186 11.9595 152.295 12.6085C152.41 13.2574 152.467 13.9121 152.467 14.5782V23.158Z" fill="white"/>
<path d="M155.534 7.49163V4H159.048V7.49163H155.534ZM155.534 23.158V9.40397H159.048V23.158H155.534Z" fill="white"/>
<path d="M161.363 16.2839C161.363 15.3191 161.529 14.4117 161.862 13.556C162.195 12.7003 162.678 11.948 163.304 11.2991C163.935 10.6502 164.693 10.1333 165.589 9.74854C166.48 9.36377 167.49 9.16852 168.61 9.16852C170.115 9.16852 171.395 9.49012 172.458 10.1391C173.514 10.788 174.307 11.6379 174.835 12.6831L171.395 13.734C171.097 13.2287 170.706 12.8382 170.212 12.5683C169.724 12.2983 169.179 12.1605 168.587 12.1605C168.082 12.1605 167.605 12.2639 167.169 12.4649C166.732 12.6659 166.353 12.9473 166.026 13.3033C165.704 13.6594 165.446 14.0958 165.262 14.6012C165.078 15.1066 164.986 15.6694 164.986 16.2839C164.986 16.8983 165.084 17.4554 165.274 17.9607C165.463 18.4661 165.721 18.9083 166.049 19.2758C166.37 19.6434 166.755 19.9305 167.192 20.1315C167.628 20.3325 168.093 20.4359 168.581 20.4359C169.213 20.4359 169.793 20.2808 170.327 19.965C170.861 19.6491 171.235 19.2644 171.441 18.8107L174.881 19.8616C174.41 20.9125 173.629 21.7682 172.544 22.4344C171.459 23.1006 170.155 23.4336 168.633 23.4336C167.513 23.4336 166.508 23.2384 165.612 22.8536C164.722 22.4689 163.958 21.9463 163.327 21.2916C162.695 20.6369 162.213 19.8731 161.868 19.0059C161.535 18.133 161.363 17.2257 161.363 16.2839Z" fill="white"/>
</svg>
