<svg width="175" height="29" viewBox="0 0 175 29" fill="none" xmlns="http://www.w3.org/2000/svg">
<path d="M13.1805 7.6272C11.7485 7.6272 10.3294 7.6272 8.8974 7.6272C8.8974 9.07206 8.91026 10.5191 8.8974 11.9639C7.45254 11.9511 6.00553 11.9639 4.56067 11.9639C4.54781 13.3959 4.54781 14.8151 4.56067 16.2471C6.00553 16.2471 7.43968 16.2599 8.88454 16.2471C8.91026 17.6919 8.8974 19.1518 8.92527 20.5967C10.3444 20.5967 11.7635 20.5966 13.1955 20.5838C13.1698 19.1389 13.1827 17.6919 13.1955 16.2471C14.6404 16.2599 16.0874 16.2599 17.5323 16.2471C17.5451 14.8279 17.5451 13.3959 17.5323 11.9639C16.0874 11.9511 14.6404 11.9639 13.1955 11.9639C13.1805 10.5191 13.1805 9.07206 13.1805 7.6272Z" fill="#8DC63F"/>
<path d="M1.05998 22.7599C0.701981 23.1179 0.755575 23.7417 1.12644 24.0868C3.40735 26.3956 6.5243 27.8533 9.7613 28.1192C13.0369 28.4364 16.4068 27.5618 19.0843 25.6646C21.0865 24.2712 22.7179 22.3354 23.779 20.1338C24.4693 18.5153 24.9066 16.7918 25.091 15.0275C25.2775 12.0027 24.48 8.91365 22.7972 6.37979C23.1681 5.50515 23.2753 4.45688 22.7972 3.5951C22.1734 2.32174 20.542 1.71078 19.2172 2.18883C18.1153 2.57255 17.3072 3.6487 17.2686 4.81488C17.1893 6.1011 18.051 7.3616 19.2837 7.74533C19.9611 7.98328 20.6771 7.8911 21.3395 7.67887C23.5668 11.0874 23.8069 15.6621 22.0298 19.3235C21.824 19.7994 21.5324 20.2239 21.3095 20.6848L21.0072 21.1414C19.9954 22.4512 18.8249 23.6409 17.3886 24.4963C14.7369 26.1405 11.4205 26.6722 8.37004 25.9819C6.44713 25.5574 4.64427 24.6421 3.14367 23.3687C3.40949 23.1029 3.67316 22.8392 3.93899 22.5734C5.52962 23.8596 7.43967 24.7621 9.46976 25.0408C11.9629 25.3988 14.5889 24.895 16.7369 23.5809C20.0404 21.6044 22.1755 17.8122 22.0683 13.9664C22.0683 13.2375 21.0737 12.8516 20.557 13.3426C20.1326 13.6341 20.1862 14.1786 20.1583 14.6159C20.0125 18.0244 17.7573 21.2336 14.6018 22.5198C12.4795 23.4352 9.99926 23.4887 7.8384 22.6656C5.76757 21.8981 3.99043 20.3461 2.97003 18.3824C2.00107 16.5646 1.67094 14.4037 2.06753 12.3736C2.50484 10.0541 3.91112 7.93183 5.84689 6.60487C7.34534 5.5566 9.15035 4.98637 10.9661 4.97351C11.457 5.01424 11.9736 4.6691 12.0143 4.13746C12.1065 3.60797 11.6563 3.06346 11.099 3.06346C8.77734 3.0506 6.44284 3.82019 4.56066 5.17288C2.59702 6.57915 1.11143 8.66069 0.436162 10.9823C-0.254113 13.3962 -0.134066 16.0479 0.860616 18.3696C1.28507 19.405 1.90889 20.3332 2.58416 21.2207C2.08039 21.7395 1.55089 22.2282 1.05998 22.7599ZM21.1251 5.95533C20.3963 6.72492 18.9643 6.20829 18.8442 5.17288C18.6448 4.21892 19.6803 3.30356 20.6085 3.6487C21.5774 3.89951 21.8947 5.30579 21.1251 5.95533Z" fill="#1C75BC"/>
<path d="M24.6665 3.31836C25.2845 3.31836 25.7855 2.81736 25.7855 2.19934C25.7855 1.58132 25.2845 1.08032 24.6665 1.08032C24.0485 1.08032 23.5475 1.58132 23.5475 2.19934C23.5475 2.81736 24.0485 3.31836 24.6665 3.31836Z" fill="#1C75BC"/>
<path d="M27.2669 1.4663C27.6718 1.4663 28 1.13806 28 0.733149C28 0.328242 27.6718 0 27.2669 0C26.862 0 26.5337 0.328242 26.5337 0.733149C26.5337 1.13806 26.862 1.4663 27.2669 1.4663Z" fill="#1C75BC"/>
<path d="M55.6664 4.52271V23.1581H52.0714V15.2043H43.618V23.1581H40V4.52271H43.6237V12.0573H52.0771V4.52271H55.6664Z" fill="#1C75BC"/>
<path d="M65.4061 23.4221C64.3035 23.4221 63.3043 23.2326 62.4141 22.8593C61.524 22.486 60.7602 21.9692 60.1285 21.326C59.4968 20.677 59.0144 19.9247 58.6698 19.069C58.331 18.2134 58.1587 17.3118 58.1587 16.3642C58.1587 15.3822 58.3253 14.4633 58.6583 13.5962C58.9914 12.729 59.4738 11.9709 60.0998 11.3105C60.7315 10.6558 61.4953 10.1332 62.3969 9.74848C63.2985 9.36371 64.3093 9.16846 65.4291 9.16846C66.549 9.16846 67.5482 9.36371 68.4326 9.74848C69.317 10.1332 70.0693 10.6501 70.6895 11.299C71.3097 11.948 71.7807 12.7003 72.108 13.556C72.4296 14.4116 72.5961 15.3075 72.5961 16.2321C72.5961 16.4618 72.5904 16.68 72.5846 16.8868C72.5732 17.0993 72.5559 17.2715 72.5215 17.4094H61.8858C61.9375 17.9492 62.0696 18.4316 62.2821 18.8508C62.4945 19.27 62.7644 19.6318 63.0975 19.9247C63.4306 20.2233 63.8039 20.4473 64.2289 20.6081C64.6481 20.7632 65.0845 20.8436 65.544 20.8436C66.2446 20.8436 66.905 20.6713 67.5252 20.3325C68.1455 19.9936 68.5704 19.54 68.8001 18.9829L71.8209 19.8213C71.3155 20.8723 70.5057 21.7337 69.3916 22.4056C68.2718 23.0833 66.9452 23.4221 65.4061 23.4221ZM68.9724 15.1295C68.8863 14.0958 68.5015 13.2688 67.8296 12.6486C67.1577 12.0284 66.3365 11.7183 65.3774 11.7183C64.9065 11.7183 64.4643 11.7987 64.0508 11.9652C63.6374 12.1317 63.2756 12.3615 62.9597 12.6601C62.6439 12.9587 62.3854 13.3148 62.1844 13.734C61.9834 14.1532 61.8628 14.6184 61.8284 15.1237H68.9724V15.1295Z" fill="#1C75BC"/>
<path d="M74.721 4H78.2356V18.7533C78.2356 19.2586 78.3562 19.6549 78.6032 19.9363C78.8501 20.2177 79.2004 20.3555 79.6541 20.3555C79.8666 20.3555 80.0963 20.321 80.349 20.2521C80.6016 20.1832 80.8428 20.0971 81.0726 19.988L81.5435 22.6641C81.0726 22.8938 80.5212 23.0661 79.8895 23.1867C79.2578 23.3073 78.6893 23.3705 78.1839 23.3705C77.0813 23.3705 76.2256 23.0776 75.6226 22.4918C75.0196 21.9061 74.7153 21.0734 74.7153 19.988V4H74.721Z" fill="#1C75BC"/>
<path d="M83.0422 4H86.5568V18.7533C86.5568 19.2586 86.6774 19.6549 86.9244 19.9363C87.1713 20.2177 87.5216 20.3555 87.9753 20.3555C88.1878 20.3555 88.4175 20.321 88.6702 20.2521C88.9229 20.1832 89.1641 20.0971 89.3938 19.988L89.8647 22.6641C89.3938 22.8938 88.8425 23.0661 88.2108 23.1867C87.5791 23.3073 87.0105 23.3705 86.5052 23.3705C85.4025 23.3705 84.5469 23.0776 83.9439 22.4918C83.3409 21.9061 83.0365 21.0734 83.0365 19.988V4H83.0422Z" fill="#1C75BC"/>
<path d="M97.7381 23.4221C96.6182 23.4221 95.6132 23.2268 94.7173 22.8421C93.8272 22.4573 93.0692 21.9347 92.4489 21.28C91.8287 20.6253 91.3521 19.8673 91.019 19.0116C90.6859 18.1559 90.5193 17.2543 90.5193 16.3068C90.5193 15.342 90.6859 14.4346 91.019 13.5789C91.3521 12.7232 91.8287 11.9652 92.4489 11.3105C93.0692 10.6558 93.8272 10.1332 94.7173 9.74848C95.6075 9.36371 96.6182 9.16846 97.7381 9.16846C98.8579 9.16846 99.8571 9.36371 100.742 9.74848C101.626 10.1332 102.378 10.6558 102.998 11.3105C103.619 11.9652 104.095 12.7232 104.428 13.5789C104.761 14.4346 104.928 15.3477 104.928 16.3068C104.928 17.2543 104.761 18.1559 104.428 19.0116C104.095 19.8673 103.624 20.6253 103.01 21.28C102.395 21.9347 101.643 22.4573 100.753 22.8421C99.8686 23.2268 98.8579 23.4221 97.7381 23.4221ZM94.1431 16.3068C94.1431 16.9212 94.2349 17.4726 94.4187 17.9722C94.6025 18.4718 94.8552 18.9025 95.1825 19.27C95.5041 19.6376 95.8889 19.9247 96.3253 20.1257C96.7618 20.3267 97.2327 20.4301 97.7438 20.4301C98.2492 20.4301 98.7258 20.3325 99.1623 20.1257C99.5987 19.9247 99.9777 19.6376 100.305 19.27C100.627 18.9025 100.885 18.466 101.069 17.9549C101.253 17.4496 101.345 16.8868 101.345 16.278C101.345 15.6808 101.253 15.1295 101.069 14.6241C100.885 14.1188 100.632 13.6766 100.305 13.309C99.9835 12.9415 99.5987 12.6601 99.1623 12.4533C98.7258 12.2523 98.2549 12.149 97.7438 12.149C97.2384 12.149 96.7618 12.2523 96.3253 12.4648C95.8889 12.6773 95.5098 12.9644 95.1825 13.332C94.8609 13.6995 94.6025 14.136 94.4187 14.6413C94.2349 15.1639 94.1431 15.7152 94.1431 16.3068Z" fill="#1C75BC"/>
<path d="M107.455 23.1581V4.55142H111.079V13.3953L118.9 4.52271H122.892L115.753 12.7923L123.339 23.1581H119.274L113.473 15.101L111.084 17.5933V23.1581H107.455Z" fill="#8DC63F"/>
<path d="M124.643 4H128.158V18.7533C128.158 19.2586 128.278 19.6549 128.525 19.9363C128.772 20.2177 129.123 20.3555 129.576 20.3555C129.789 20.3555 130.018 20.321 130.271 20.2521C130.524 20.1832 130.765 20.0971 130.995 19.988L131.466 22.6641C130.995 22.8938 130.443 23.0661 129.812 23.1867C129.18 23.3073 128.611 23.3705 128.106 23.3705C127.003 23.3705 126.148 23.0776 125.545 22.4918C124.942 21.9061 124.637 21.0734 124.637 19.988V4H124.643Z" fill="#1C75BC"/>
<path d="M132.993 7.49163V4H136.508V7.49163H132.993ZM132.993 23.158V9.40397H136.508V23.158H132.993Z" fill="#1C75BC"/>
<path d="M152.467 23.1579H148.952V15.4396C148.952 14.337 148.757 13.533 148.372 13.0276C147.988 12.5223 147.454 12.2638 146.77 12.2638C146.42 12.2638 146.064 12.3327 145.696 12.4763C145.329 12.6141 144.984 12.8151 144.657 13.0678C144.335 13.3205 144.042 13.6249 143.778 13.9752C143.514 14.3255 143.324 14.7103 143.198 15.1295V23.1637H139.684V9.40965H142.859V11.9537C143.365 11.0808 144.1 10.3974 145.065 9.90354C146.029 9.4154 147.109 9.16846 148.321 9.16846C149.176 9.16846 149.877 9.32351 150.423 9.63936C150.962 9.95522 151.387 10.363 151.68 10.8741C151.979 11.3794 152.186 11.9595 152.295 12.6084C152.41 13.2573 152.467 13.912 152.467 14.5782V23.1579Z" fill="#1C75BC"/>
<path d="M155.534 7.49163V4H159.048V7.49163H155.534ZM155.534 23.158V9.40397H159.048V23.158H155.534Z" fill="#1C75BC"/>
<path d="M161.363 16.2838C161.363 15.319 161.529 14.4116 161.862 13.556C162.195 12.7003 162.678 11.948 163.304 11.299C163.935 10.6501 164.693 10.1332 165.589 9.74848C166.479 9.36371 167.49 9.16846 168.61 9.16846C170.115 9.16846 171.395 9.49006 172.458 10.139C173.514 10.7879 174.307 11.6379 174.835 12.683L171.395 13.734C171.097 13.2286 170.706 12.8381 170.212 12.5682C169.724 12.2983 169.179 12.1605 168.587 12.1605C168.082 12.1605 167.605 12.2638 167.169 12.4648C166.732 12.6658 166.353 12.9472 166.026 13.3033C165.704 13.6593 165.446 14.0958 165.262 14.6011C165.078 15.1065 164.986 15.6693 164.986 16.2838C164.986 16.8983 165.084 17.4553 165.273 17.9607C165.463 18.4661 165.721 18.9082 166.049 19.2758C166.37 19.6433 166.755 19.9305 167.192 20.1315C167.628 20.3325 168.093 20.4358 168.581 20.4358C169.213 20.4358 169.793 20.2808 170.327 19.9649C170.861 19.6491 171.235 19.2643 171.441 18.8106L174.881 19.8616C174.41 20.9125 173.629 21.7682 172.544 22.4343C171.458 23.1005 170.155 23.4336 168.633 23.4336C167.513 23.4336 166.508 23.2383 165.612 22.8536C164.722 22.4688 163.958 21.9462 163.327 21.2915C162.695 20.6368 162.213 19.873 161.868 19.0059C161.535 18.133 161.363 17.2256 161.363 16.2838Z" fill="#1C75BC"/>
</svg>
