<svg width="24" height="24" viewBox="0 0 24 24" fill="none" xmlns="http://www.w3.org/2000/svg">
<path opacity="0.1" fill-rule="evenodd" clip-rule="evenodd" d="M0 12C0 5.37258 5.37258 0 12 0C18.6274 0 24 5.37258 24 12C24 18.6274 18.6274 24 12 24C5.37258 24 0 18.6274 0 12Z" fill="white"/>
<path d="M16.4459 6.74878H7.55395C7.12795 6.74878 6.78235 7.08598 6.78235 7.50238V16.4976C6.78235 16.914 7.12795 17.25 7.55395 17.25H16.4459C16.8719 17.25 17.2175 16.914 17.2175 16.4976V7.50118C17.2163 7.08598 16.8707 6.74878 16.4459 6.74878ZM9.94554 15.5376H8.36995V10.7976H9.94554V15.5376ZM9.15835 10.1508H9.14755C8.61835 10.1508 8.27755 9.78718 8.27755 9.33118C8.27755 8.86558 8.63035 8.51158 9.16795 8.51158C9.70794 8.51158 10.0391 8.86558 10.0487 9.33118C10.0487 9.78718 9.70794 10.1508 9.15835 10.1508ZM15.6287 15.5376H14.0519V13.002C14.0519 12.3648 13.8251 11.9304 13.2551 11.9304C12.8183 11.9304 12.5591 12.2232 12.4451 12.5064C12.4043 12.6084 12.3947 12.75 12.3947 12.8904V15.54H10.8179C10.8179 15.54 10.8383 11.244 10.8179 10.7988H12.3947V11.4696C12.6035 11.1468 12.9791 10.6872 13.8143 10.6872C14.8511 10.6872 15.6287 11.3652 15.6287 12.822V15.5376Z" fill="white"/>
</svg>
